<svg width="102" height="40" viewBox="0 0 102 40" fill="none" xmlns="http://www.w3.org/2000/svg">
<g clip-path="url(#clip0)">
<path d="M81.7969 24.5589C73.6771 24.5589 65.6904 24.5589 57.8369 24.5589C57.1048 29.4175 59.6339 33.7436 64.0265 35.6737C69.4176 38.0697 73.7437 36.6055 78.5357 30.682C79.4009 31.0814 80.3327 31.5473 81.331 31.9466C78.336 38.0697 72.346 40.8651 65.4242 39.6005C59.3677 38.6022 54.5091 33.2777 53.777 26.7553C53.178 21.2311 54.1763 16.1729 58.3028 12.0464C62.4958 7.91997 68.9517 6.92164 74.3427 9.45076C79.534 11.9799 82.5291 17.7037 81.7969 24.5589ZM78.0698 21.2977C77.737 15.108 73.4775 11.1147 67.8202 11.3809C62.2295 11.5805 58.0365 15.8401 58.0365 21.2977C64.6921 21.2977 71.3477 21.2977 78.0698 21.2977Z" fill="#522D6D"/>
<path d="M48.1863 16.3729C47.1214 16.9053 46.1896 17.3046 45.3909 17.704C40.7986 10.3163 33.6771 9.51762 28.2195 14.3096C22.762 19.1682 22.8285 28.7522 28.0864 33.6773C33.2778 38.5359 39.9999 37.4045 45.3909 30.4827C46.1896 30.8154 47.1214 31.1482 47.9866 31.481C45.7903 37.6041 40.1996 40.6657 33.0116 39.7339C26.1563 38.8687 20.8319 32.5459 20.4325 24.6923C20.0997 17.3046 24.7586 10.4494 31.4142 8.71895C38.6688 6.78884 44.6588 9.45106 48.1863 16.3729Z" fill="#522D6D"/>
<path d="M17.1682 38.9363C10.8454 41.5986 5.65406 38.6035 5.45439 32.0145C5.32128 26.8232 5.45439 21.5653 5.45439 16.3739C5.45439 15.1759 5.45439 13.9779 5.45439 12.5802C3.52427 12.4471 1.99349 12.3806 0.129931 12.314C-0.735293 7.65511 3.45772 10.0511 5.45439 8.32066C5.45439 6.85644 5.52094 4.72665 5.45439 2.72998C5.32128 0.267415 6.25306 -0.59781 8.91529 0.400527C8.91529 2.26409 9.0484 4.26076 8.84873 6.19088C8.64906 8.52033 9.58084 9.45211 11.9103 9.18589C12.7755 9.11933 13.7739 8.98622 14.5725 9.25245C15.3046 9.51867 15.7705 10.3839 16.3695 10.9163C15.7705 11.3822 15.2381 12.2475 14.6391 12.314C12.9086 12.5137 11.1782 12.3806 9.11495 12.3806C9.11495 19.3689 8.91529 25.9579 9.24807 32.547C9.38118 35.2758 11.511 37.0062 14.3729 36.4738C16.7023 36.0744 16.9685 37.2724 17.1682 38.9363Z" fill="#522D6D"/>
<path d="M92.9783 34.8084C93.0448 32.4124 95.1081 30.4157 97.6372 30.6153C100.499 30.815 101.631 32.6786 101.764 35.2743C101.83 37.6037 99.3676 39.8666 96.9051 39.5338C94.4425 39.2011 93.1114 37.6037 92.9783 34.8084Z" fill="#522D6D"/>
</g>
<defs>
<clipPath id="clip0">
<rect width="101.764" height="40" fill="white"/>
</clipPath>
</defs>
</svg>
